<?xml version="1.0" encoding="utf-8"?>
<!-- Generator: Adobe Illustrator 19.0.0, SVG Export Plug-In . SVG Version: 6.00 Build 0)  -->
<svg version="1.1" id="Layer_1" xmlns="http://www.w3.org/2000/svg" xmlns:xlink="http://www.w3.org/1999/xlink" x="0px" y="0px"
	 viewBox="-565 566.7 68.3 68.3" style="enable-background:new -565 566.7 68.3 68.3;" xml:space="preserve">
<style type="text/css">
	.st0{fill:#FFFFFF;}
</style>
<path id="XMLID_9_" class="st0" d="M-530.8,567.9c-18.2,0-33,14.8-33,33s14.8,33,33,33s33-14.8,33-33S-512.6,567.9-530.8,567.9z"/>
<path id="XMLID_1_" d="M-518.3,611.1c0.8,0.8,0.8,2.1,0,2.8c-0.8,0.8-2.1,0.8-2.8,0l-10.2-10.2l-10.3,10.2c-0.8,0.8-2.1,0.8-2.8,0
	c-0.8-0.8-0.8-2.1,0-2.8l10.3-10.3l-10.3-10.2c-0.8-0.8-0.8-2.1,0-2.8c0.8-0.7,2.1-0.8,2.8,0l10.3,10.3l10.3-10.3
	c0.8-0.8,2.1-0.8,2.8,0c0.7,0.8,0.8,2.1,0,2.8l-10.3,10.3L-518.3,611.1z"/>
</svg>
