<?xml version="1.0" encoding="utf-8"?>
<!-- Generator: Adobe Illustrator 19.0.0, SVG Export Plug-In . SVG Version: 6.00 Build 0)  -->
<svg version="1.1" id="Layer_1" xmlns="http://www.w3.org/2000/svg" xmlns:xlink="http://www.w3.org/1999/xlink" x="0px" y="0px"
	 viewBox="-565 566.7 68.3 68.3" style="enable-background:new -565 566.7 68.3 68.3;" xml:space="preserve">
<style type="text/css">
	.st0{fill:#FFFFFF;}
</style>
<path id="XMLID_6_" class="st0" d="M-530.8,567.9c-18.2,0-33,14.8-33,33s14.8,33,33,33s33-14.8,33-33S-512.6,567.9-530.8,567.9z"/>
<path id="XMLID_1_" d="M-514.8,613.9h-33c-1.1,0-2-0.9-2-2c0-1.1,0.9-2,2-2h33c1.1,0,2,0.9,2,2C-512.8,613-513.7,613.9-514.8,613.9z
	 M-514.8,602.9h-33c-1.1,0-2-0.9-2-2c0-1.1,0.9-2,2-2h33c1.1,0,2,0.9,2,2C-512.8,602-513.7,602.9-514.8,602.9z M-514.8,591.9h-33
	c-1.1,0-2-0.9-2-2c0-1.1,0.9-2,2-2h33c1.1,0,2,0.9,2,2C-512.8,591-513.7,591.9-514.8,591.9z"/>
</svg>
