<?xml version="1.0" encoding="utf-8"?>
<!-- Generator: Adobe Illustrator 19.0.0, SVG Export Plug-In . SVG Version: 6.00 Build 0)  -->
<svg version="1.1" id="Layer_1" xmlns="http://www.w3.org/2000/svg" xmlns:xlink="http://www.w3.org/1999/xlink" x="0px" y="0px"
	 viewBox="0 0 70.4 70.4" style="enable-background:new 0 0 70.4 70.4;" xml:space="preserve">
<style type="text/css">
	.st0{fill:#FFFFFF;}
</style>
<path id="XMLID_58_" class="st0" d="M35.2,2.2c-18.2,0-33,14.8-33,33s14.8,33,33,33s33-14.8,33-33S53.4,2.2,35.2,2.2z M55.8,36.7
	L26.2,54.8c-0.3,0.2-0.6,0.3-1,0.3c-0.3,0-0.6-0.1-0.9-0.2c-0.6-0.3-0.9-0.9-0.9-1.6V17c0-0.7,0.4-1.3,0.9-1.6
	c0.6-0.3,1.3-0.3,1.9,0l29.5,18.1c0.5,0.3,0.9,0.9,0.9,1.6C56.7,35.8,56.3,36.4,55.8,36.7z"/>
</svg>
