<?xml version="1.0" encoding="utf-8"?>
<!-- Generator: Adobe Illustrator 19.0.0, SVG Export Plug-In . SVG Version: 6.00 Build 0)  -->
<svg version="1.1" id="Layer_1" xmlns="http://www.w3.org/2000/svg" xmlns:xlink="http://www.w3.org/1999/xlink" x="0px" y="0px"
	 viewBox="-964 965.6 70.4 70.4" style="enable-background:new -964 965.6 70.4 70.4;" xml:space="preserve">
<style type="text/css">
	.st0{fill:#FFFFFF;}
</style>
<path id="XMLID_58_" class="st0" d="M-929,967.6c-18.2,0-33,14.8-33,33s14.8,33,33,33s33-14.8,33-33S-910.8,967.6-929,967.6z
	 M-908.4,1002.1l-29.6,18.1c-0.3,0.2-0.6,0.3-1,0.3c-0.3,0-0.6-0.1-0.9-0.2c-0.6-0.3-0.9-0.9-0.9-1.6v-36.3c0-0.7,0.4-1.3,0.9-1.6
	c0.6-0.3,1.3-0.3,1.9,0l29.5,18.1c0.5,0.3,0.9,0.9,0.9,1.6C-907.5,1001.2-907.9,1001.8-908.4,1002.1z"/>
</svg>
