<?xml version="1.0" encoding="utf-8"?>
<!-- Generator: Adobe Illustrator 19.0.0, SVG Export Plug-In . SVG Version: 6.00 Build 0)  -->
<svg version="1.1" id="Layer_1" xmlns="http://www.w3.org/2000/svg" xmlns:xlink="http://www.w3.org/1999/xlink" x="0px" y="0px"
	 viewBox="0 0 1200 514" style="enable-background:new 0 0 1200 514;" xml:space="preserve">
<style type="text/css">
	.st0{fill:#FFFFFF;}
</style>
<path id="XMLID_56_" class="st0" d="M439.4,438.8l355-355c4.7-4.7,4.7-12.3,0-17l-0.7-0.7c-4.7-4.7-12.3-4.7-17,0l-355,355
	c-4.7,4.7-4.7,12.3,0,17l0.7,0.7C427.1,443.5,434.7,443.5,439.4,438.8z"/>
<path id="XMLID_16_" class="st0" d="M776.6,438.8l-355-355c-4.7-4.7-4.7-12.3,0-17l0.7-0.7c4.7-4.7,12.3-4.7,17,0l355,355
	c4.7,4.7,4.7,12.3,0,17l-0.7,0.7C788.9,443.5,781.3,443.5,776.6,438.8z"/>
<path id="XMLID_82_" class="st0" d="M-500.5,266h-502c-6.6,0-12-5.4-12-12v-1c0-6.6,5.4-12,12-12h502c6.6,0,12,5.4,12,12v1
	C-488.5,260.6-493.9,266-500.5,266z"/>
</svg>
